<svg id="svg" version="1.1" xmlns="http://www.w3.org/2000/svg" xmlns:xlink="http://www.w3.org/1999/xlink" width="400" height="400" viewBox="0, 0, 400,400"><g id="svgg"><path id="path0" d="M174.157 103.055 L 148.633 128.498 161.035 128.507 L 173.438 128.516 173.438 163.026 L 173.438 197.536 171.973 199.507 C 170.457 201.546,166.167 207.021,160.739 213.842 C 154.836 221.262,154.922 220.377,159.854 222.883 C 163.180 224.574,162.646 224.741,165.823 221.015 C 170.225 215.851,180.731 203.241,181.815 201.820 L 182.813 200.512 182.866 182.971 C 182.895 173.323,182.995 165.825,183.088 166.309 C 183.181 166.792,183.409 167.188,183.594 167.188 C 183.779 167.188,184.006 166.792,184.099 166.309 L 184.269 165.430 184.322 166.309 L 184.375 167.188 192.936 167.187 C 197.763 167.187,201.554 167.031,201.628 166.830 C 201.796 166.368,212.062 165.474,214.303 165.727 C 215.838 165.900,216.021 165.834,216.071 165.089 C 216.345 160.942,216.727 171.583,216.758 184.245 C 216.803 202.573,216.210 199.939,221.841 206.796 C 229.680 216.343,232.141 219.119,232.543 218.871 C 232.758 218.738,232.816 218.820,232.672 219.052 C 232.528 219.284,232.847 219.971,233.381 220.577 C 233.914 221.184,234.356 221.460,234.363 221.191 C 234.369 220.923,234.155 220.683,233.887 220.658 C 232.276 220.510,236.567 220.131,238.574 220.244 C 241.354 220.401,241.944 221.346,239.941 222.433 C 239.351 222.753,238.994 223.023,239.148 223.031 C 239.776 223.066,242.562 221.383,242.375 221.082 C 242.265 220.903,242.362 220.641,242.591 220.500 C 242.875 220.324,242.847 220.038,242.499 219.594 C 242.045 219.013,242.064 219.001,242.681 219.485 C 243.246 219.929,243.281 220.132,242.876 220.623 C 242.471 221.114,242.484 221.188,242.944 221.035 C 244.019 220.680,243.741 220.071,240.913 216.589 C 236.445 211.088,227.199 199.215,226.666 198.294 C 226.293 197.650,226.182 189.629,226.178 162.994 L 226.172 128.527 238.283 128.424 L 250.393 128.320 225.037 102.966 L 199.680 77.612 174.157 103.055 M137.639 153.287 C 133.982 154.990,127.953 158.709,126.465 160.179 L 125.000 161.627 125.001 168.411 C 125.003 177.253,125.326 177.784,133.256 182.011 C 134.896 182.885,136.478 183.896,136.771 184.258 C 137.137 184.709,137.151 184.823,136.816 184.622 C 136.429 184.390,136.328 187.249,136.328 198.410 L 136.328 212.490 134.863 213.409 C 134.058 213.914,132.871 214.577,132.227 214.883 L 131.055 215.439 130.944 219.661 L 130.832 223.884 134.264 222.045 C 141.255 218.299,142.562 217.541,143.728 216.560 L 144.922 215.556 144.837 202.211 C 144.790 194.872,144.697 191.092,144.630 193.810 C 144.497 199.208,144.614 198.961,141.895 199.613 C 140.468 199.955,140.349 199.830,141.246 198.932 C 141.772 198.407,141.920 198.396,142.207 198.859 C 142.430 199.220,142.675 199.275,142.925 199.020 C 143.527 198.405,142.146 197.028,140.950 197.051 C 140.377 197.061,139.777 197.202,139.616 197.363 C 139.455 197.524,138.967 197.656,138.532 197.656 C 137.754 197.656,137.753 197.665,138.499 198.210 C 139.532 198.965,138.902 199.474,137.719 198.841 C 136.770 198.333,136.766 198.310,136.772 192.040 C 136.776 187.480,136.889 185.948,137.183 186.473 C 137.446 186.944,137.491 188.896,137.310 192.037 C 137.112 195.466,137.156 196.875,137.461 196.875 C 137.697 196.875,137.891 196.523,137.891 196.094 C 137.891 195.664,138.066 195.313,138.281 195.313 C 138.514 195.313,138.672 193.823,138.672 191.625 C 138.672 189.596,138.837 187.835,139.039 187.710 C 139.429 187.469,138.302 185.163,137.793 185.159 C 137.632 185.157,137.500 184.974,137.500 184.752 C 137.500 184.473,137.735 184.473,138.256 184.752 C 140.398 185.899,145.261 184.005,152.193 179.324 C 156.466 176.437,156.445 176.490,156.445 168.551 L 156.445 161.770 155.273 160.540 C 152.931 158.082,142.740 152.340,140.732 152.348 C 140.136 152.350,138.744 152.772,137.639 153.287 M257.031 152.697 C 254.405 153.531,246.591 158.241,244.629 160.172 L 243.359 161.421 243.359 168.673 L 243.359 175.925 245.228 177.709 C 250.485 182.726,258.871 186.026,261.987 184.303 C 262.887 183.805,264.557 182.894,265.698 182.278 C 274.218 177.678,274.606 177.092,274.608 168.828 C 274.610 161.058,274.566 160.951,270.262 158.218 C 262.803 153.483,259.239 151.995,257.031 152.697 M141.914 161.564 C 142.602 161.909,144.263 162.825,145.605 163.599 L 148.047 165.006 148.047 168.795 L 148.047 172.584 144.238 174.514 L 140.430 176.445 136.816 174.522 L 133.203 172.600 133.203 168.757 L 133.203 164.913 136.816 162.941 C 141.081 160.614,140.391 160.801,141.914 161.564 M262.343 162.931 L 266.042 164.925 265.931 168.888 L 265.820 172.852 262.335 174.697 L 258.850 176.543 257.648 175.816 C 256.986 175.416,255.341 174.521,253.991 173.826 L 251.536 172.563 251.647 168.663 L 251.758 164.762 255.078 162.887 C 256.904 161.855,258.454 160.994,258.521 160.974 C 258.589 160.954,260.309 161.835,262.343 162.931 M197.559 170.782 L 195.313 171.989 195.313 190.487 C 195.313 207.447,195.443 209.963,196.255 208.649 C 196.369 208.464,197.428 208.200,198.607 208.061 C 200.834 207.800,202.721 207.141,203.217 206.453 C 203.378 206.229,203.518 206.396,203.537 206.836 L 203.571 207.617 203.906 206.836 C 204.091 206.406,204.252 198.496,204.265 189.258 L 204.287 172.461 203.023 171.649 C 202.327 171.202,201.318 170.553,200.781 170.205 C 199.851 169.604,199.698 169.632,197.559 170.782 M262.983 191.496 L 262.891 198.031 261.344 198.820 C 259.515 199.753,257.274 199.833,255.717 199.021 C 255.102 198.700,254.530 198.438,254.448 198.438 C 253.339 198.438,254.683 215.909,255.859 216.797 C 256.851 217.545,267.737 223.438,268.127 223.438 C 268.255 223.438,268.356 221.636,268.352 219.434 L 268.344 215.430 265.818 213.952 L 263.291 212.475 263.183 198.718 C 263.124 191.152,263.034 187.902,262.983 191.496 M254.838 192.969 C 254.838 195.654,254.900 196.753,254.977 195.410 C 255.053 194.067,255.053 191.870,254.977 190.527 C 254.900 189.185,254.838 190.283,254.838 192.969 M156.667 190.431 C 155.070 191.392,153.622 192.400,153.450 192.671 C 153.081 193.252,153.008 212.500,153.375 212.500 C 154.107 212.500,161.501 208.280,161.949 207.606 C 162.372 206.971,162.428 205.115,162.230 198.293 C 161.915 187.404,161.851 187.313,156.667 190.431 M238.281 189.453 C 237.139 190.595,237.069 206.911,238.202 207.936 C 238.851 208.523,245.915 212.500,246.309 212.500 C 247.097 212.500,246.419 192.881,245.605 192.132 C 242.712 189.471,239.455 188.279,238.281 189.453 M121.571 208.030 L 120.703 208.638 120.703 238.480 C 120.703 270.664,120.643 269.742,122.821 271.058 C 124.624 272.148,140.520 280.469,140.798 280.469 C 140.931 280.469,140.990 278.337,140.930 275.732 L 140.820 270.996 135.700 268.213 C 132.883 266.682,130.290 265.188,129.938 264.894 C 129.355 264.406,129.297 261.991,129.297 238.471 L 129.297 212.585 126.137 210.003 C 122.613 207.124,122.768 207.192,121.571 208.030 M275.586 208.146 C 274.941 208.543,273.491 209.701,272.363 210.720 L 270.313 212.572 270.313 238.663 L 270.313 264.754 269.434 265.327 C 268.950 265.642,266.313 267.097,263.574 268.559 L 258.594 271.217 258.594 275.827 L 258.594 280.437 260.076 279.769 C 261.382 279.181,268.696 275.374,275.586 271.697 C 279.073 269.835,278.859 271.998,278.884 238.379 C 278.906 209.490,278.893 208.971,278.125 208.203 C 277.169 207.247,277.051 207.244,275.586 208.146 M196.795 212.604 C 195.999 213.084,193.451 214.603,191.131 215.981 C 183.648 220.425,184.016 219.800,183.998 228.079 C 183.982 235.744,184.621 237.370,187.891 237.977 C 188.213 238.037,188.606 238.262,188.764 238.477 C 188.922 238.692,189.053 238.525,189.057 238.105 C 189.061 237.513,189.167 237.448,189.531 237.813 C 190.098 238.379,191.797 238.438,191.797 237.891 C 191.797 237.676,192.137 237.500,192.553 237.500 C 192.968 237.500,193.798 237.314,194.395 237.087 C 194.993 236.859,196.864 236.637,198.553 236.593 C 200.865 236.533,201.707 236.363,201.963 235.906 C 202.191 235.499,202.978 235.267,204.344 235.205 C 205.467 235.153,206.695 234.946,207.073 234.743 C 207.452 234.541,208.558 234.375,209.531 234.375 C 210.848 234.375,211.399 234.192,211.684 233.658 C 211.969 233.126,212.399 232.982,213.358 233.100 C 214.345 233.221,214.511 233.162,214.063 232.846 C 213.553 232.488,213.562 232.433,214.132 232.428 C 214.492 232.425,214.867 232.729,214.965 233.105 C 215.063 233.481,215.164 230.915,215.189 227.402 L 215.234 221.016 213.965 219.769 C 212.853 218.678,210.813 217.402,202.826 212.802 C 200.570 211.503,198.722 211.442,196.795 212.604 M206.947 228.473 L 207.058 232.366 203.782 234.152 C 199.768 236.340,199.655 236.341,195.849 234.238 L 192.773 232.539 192.662 228.597 L 192.551 224.656 196.157 222.705 L 199.763 220.754 203.299 222.667 L 206.836 224.579 206.947 228.473 M144.922 223.047 C 144.154 223.814,144.141 224.349,144.141 253.365 L 144.141 282.902 145.215 283.873 C 146.338 284.888,177.392 301.254,177.669 300.977 C 177.756 300.890,178.098 301.089,178.429 301.421 C 178.972 301.963,179.066 301.961,179.379 301.402 C 179.570 301.061,180.069 300.781,180.488 300.781 C 180.907 300.781,181.250 300.629,181.250 300.444 C 181.250 300.049,184.286 298.828,185.267 298.828 C 185.636 298.828,185.938 298.564,185.938 298.242 C 185.938 297.878,186.306 297.656,186.914 297.656 C 187.451 297.656,187.891 297.788,187.891 297.949 C 187.891 298.110,188.374 298.269,188.965 298.302 C 189.879 298.353,189.761 298.220,188.170 297.409 C 187.142 296.884,186.104 296.577,185.863 296.726 C 185.577 296.902,185.537 296.817,185.746 296.478 C 185.977 296.105,185.889 296.029,185.428 296.206 C 185.078 296.340,184.670 296.255,184.522 296.016 C 184.360 295.754,184.432 295.692,184.705 295.861 C 184.953 296.014,185.156 296.059,185.156 295.959 C 185.156 295.792,176.255 290.961,160.547 282.604 C 157.002 280.718,153.794 278.984,153.418 278.751 C 152.734 278.327,152.289 234.766,152.969 234.766 C 153.099 234.766,154.988 235.714,157.169 236.874 C 159.349 238.033,167.021 242.094,174.219 245.899 C 189.646 254.054,188.281 253.105,188.281 255.680 C 188.281 258.086,188.018 257.864,195.246 261.552 L 199.671 263.811 204.384 261.495 C 210.834 258.326,210.938 258.234,210.938 255.641 C 210.938 253.619,211.003 253.485,212.402 252.611 C 215.204 250.860,246.113 234.766,246.672 234.766 C 246.784 234.766,246.875 244.590,246.875 256.597 L 246.875 278.429 243.848 280.010 C 234.037 285.134,226.407 289.495,226.329 290.023 C 226.229 290.709,227.579 290.840,228.516 290.234 C 229.011 289.914,228.991 289.855,228.385 289.850 C 227.979 289.846,227.747 289.633,227.848 289.355 C 227.947 289.087,228.225 288.911,228.467 288.965 C 228.708 289.019,228.906 288.888,228.906 288.676 C 228.906 288.463,229.258 288.590,229.688 288.958 C 230.117 289.326,230.469 289.833,230.469 290.084 C 230.469 290.873,231.587 291.020,234.465 290.612 C 236.035 290.390,237.346 290.366,237.472 290.558 C 238.038 291.420,239.578 291.906,240.008 291.358 C 240.240 291.062,240.695 290.778,241.019 290.727 C 242.271 290.529,254.316 283.893,254.877 283.093 C 255.740 281.861,255.775 224.397,254.914 223.219 C 253.824 221.728,251.466 222.197,246.680 224.856 C 244.316 226.169,237.461 229.803,231.445 232.932 C 225.430 236.061,215.850 241.081,210.156 244.088 L 199.805 249.555 193.750 246.400 C 190.420 244.665,182.158 240.349,175.391 236.810 C 164.844 231.293,160.090 228.777,149.649 223.186 C 147.546 222.060,145.956 222.013,144.922 223.047 M170.313 265.149 C 170.313 273.920,170.380 274.940,170.996 275.496 C 171.639 276.075,190.430 286.062,196.909 289.267 L 199.872 290.733 205.307 287.805 C 208.296 286.195,213.203 283.597,216.211 282.032 C 219.219 280.466,223.394 278.234,225.488 277.071 L 229.297 274.956 229.297 265.180 C 229.297 259.273,229.152 255.455,228.931 255.534 C 228.730 255.605,226.711 256.631,224.445 257.813 L 220.325 259.961 220.319 265.089 C 220.314 268.715,220.170 270.332,219.824 270.609 C 219.287 271.041,211.810 275.068,204.476 278.876 L 199.772 281.318 189.632 275.893 L 179.492 270.469 179.297 265.217 L 179.102 259.965 174.707 257.693 L 170.313 255.420 170.313 265.149 " stroke="none" fill="#d8e4f2" fill-rule="evenodd"></path><path id="path1" d="M0.000 200.000 L 0.000 400.000 200.000 400.000 L 400.000 400.000 400.000 200.000 L 400.000 0.000 200.000 0.000 L 0.000 0.000 0.000 200.000 M283.445 65.444 C 302.108 68.676,317.232 83.353,321.318 102.198 C 321.922 104.981,321.999 109.770,322.125 152.539 C 322.290 207.936,321.834 281.958,321.440 263.867 C 321.304 257.637,321.080 239.707,320.942 224.023 C 320.804 208.340,320.582 194.058,320.448 192.285 L 320.205 189.063 317.915 189.063 C 315.885 189.063,315.625 188.974,315.625 188.281 C 315.625 187.630,315.365 187.500,314.063 187.500 L 312.500 187.500 312.500 185.938 L 312.500 184.375 306.250 184.375 L 300.000 184.375 300.000 185.938 L 300.000 187.500 295.313 187.500 C 290.885 187.500,290.625 187.543,290.625 188.281 C 290.625 188.932,290.365 189.063,289.063 189.063 C 287.760 189.063,287.500 188.932,287.500 188.281 C 287.500 187.565,287.240 187.500,284.375 187.500 L 281.250 187.500 281.250 185.938 L 281.250 184.375 278.153 184.375 L 275.055 184.375 274.930 180.837 C 274.861 178.891,274.924 177.001,275.070 176.638 C 275.216 176.274,275.313 173.340,275.286 170.117 L 275.236 164.258 275.021 169.922 C 274.849 174.424,274.664 175.793,274.120 176.594 C 273.743 177.148,273.567 177.734,273.729 177.896 C 273.891 178.058,273.848 178.148,273.633 178.096 C 272.987 177.939,271.863 178.571,272.102 178.957 C 272.224 179.155,272.160 179.268,271.959 179.209 C 271.759 179.150,269.812 180.137,267.634 181.403 L 263.672 183.705 263.672 198.083 L 263.672 212.462 266.211 213.882 L 268.750 215.302 268.750 219.565 C 268.750 222.522,268.612 223.828,268.300 223.828 C 267.507 223.828,256.574 217.812,255.414 216.738 L 254.297 215.702 254.288 199.746 L 254.280 183.789 250.618 181.740 C 248.603 180.614,246.102 178.920,245.060 177.977 L 243.164 176.261 242.961 168.892 L 242.757 161.523 242.570 168.811 C 242.457 173.198,242.526 176.010,242.742 175.876 C 242.940 175.753,242.996 175.929,242.866 176.266 C 242.606 176.944,243.836 178.300,244.294 177.841 C 244.451 177.684,244.398 178.035,244.175 178.621 C 243.782 179.653,243.812 179.687,245.104 179.688 C 245.838 179.688,246.559 179.882,246.706 180.120 C 246.891 180.420,246.606 180.472,245.779 180.290 C 244.357 179.978,243.750 180.783,243.750 182.982 C 243.750 184.115,243.604 184.375,242.969 184.375 C 242.448 184.375,242.188 184.635,242.188 185.156 C 242.188 185.885,241.927 185.938,238.281 185.938 C 235.178 185.938,234.375 185.824,234.375 185.386 C 234.375 185.047,233.773 184.733,232.813 184.570 C 231.953 184.425,231.250 184.146,231.250 183.950 C 231.250 183.754,230.547 183.594,229.688 183.594 C 228.828 183.594,228.125 183.770,228.125 183.984 C 228.125 184.199,227.778 184.375,227.354 184.375 C 226.629 184.375,226.577 184.048,226.464 178.809 C 226.398 175.747,226.305 178.658,226.258 185.277 C 226.211 191.896,226.310 197.226,226.479 197.122 C 226.648 197.018,226.789 197.227,226.793 197.587 C 226.801 198.245,227.895 199.686,238.220 212.632 C 241.301 216.495,243.911 219.886,244.018 220.166 C 244.235 220.731,241.946 222.303,238.695 223.821 L 236.618 224.790 234.854 222.844 C 233.883 221.774,231.586 219.091,229.748 216.882 C 227.771 214.506,226.200 212.946,225.899 213.062 C 225.619 213.169,225.391 213.086,225.391 212.878 C 225.391 212.670,225.231 212.500,225.037 212.500 C 224.842 212.500,224.770 212.833,224.876 213.240 C 225.057 213.931,224.750 213.990,220.250 214.132 C 216.592 214.247,215.116 214.452,214.130 214.980 C 212.851 215.665,212.827 215.663,212.613 214.844 C 212.396 214.013,211.098 213.968,208.496 214.703 C 208.120 214.810,207.813 214.720,207.813 214.504 C 207.813 214.288,207.473 214.137,207.058 214.168 C 205.944 214.252,206.260 214.520,210.317 216.941 C 215.779 220.201,215.700 220.026,215.552 228.483 C 215.396 237.403,216.651 235.911,203.402 242.921 C 199.340 245.070,199.770 245.172,189.717 239.661 C 183.789 236.412,183.818 236.465,183.665 228.630 C 183.516 220.967,183.715 220.361,187.106 218.166 C 188.379 217.343,189.312 216.495,189.181 216.282 C 189.049 216.069,189.139 216.017,189.381 216.167 C 189.731 216.383,192.186 215.473,192.188 215.127 C 192.189 214.834,175.172 215.357,175.065 215.653 C 174.759 216.506,173.438 216.007,173.438 215.039 C 173.438 214.502,173.251 214.063,173.024 214.063 C 172.796 214.063,172.719 213.887,172.852 213.672 C 173.551 212.540,172.486 213.631,170.087 216.504 C 162.411 225.697,163.202 225.185,159.699 223.227 C 158.339 222.466,156.831 221.647,156.348 221.406 C 154.805 220.638,154.625 220.906,167.578 204.667 C 168.975 202.916,170.776 200.595,171.582 199.510 L 173.047 197.536 172.961 183.241 C 172.884 170.439,172.853 169.823,172.668 177.344 C 172.492 184.471,172.410 185.343,172.122 183.105 C 171.840 180.903,171.663 180.469,171.048 180.469 C 170.644 180.469,170.313 180.645,170.313 180.859 C 170.313 181.076,169.271 181.250,167.969 181.250 C 165.885 181.250,165.625 181.337,165.625 182.031 C 165.625 182.682,165.365 182.813,164.063 182.813 C 162.656 182.813,162.500 182.910,162.500 183.789 C 162.500 184.668,162.344 184.766,160.938 184.766 C 159.355 184.766,158.993 185.516,159.334 188.086 C 159.363 188.301,159.164 188.213,158.892 187.891 C 158.202 187.072,157.066 186.956,156.789 187.677 C 155.993 189.752,154.687 187.597,154.688 184.208 L 154.688 181.250 156.250 181.250 C 157.109 181.250,157.813 181.074,157.813 180.859 C 157.813 180.645,157.269 180.469,156.604 180.469 C 155.726 180.469,155.340 180.256,155.192 179.692 C 155.081 179.265,154.834 179.011,154.643 179.129 C 153.896 179.591,154.362 178.854,155.664 177.513 L 157.031 176.105 156.951 169.205 L 156.871 162.305 156.658 169.288 L 156.445 176.271 154.610 177.882 C 153.600 178.767,151.095 180.438,149.043 181.593 L 145.313 183.694 145.313 199.411 C 145.313 218.602,146.831 215.597,133.510 222.775 C 130.366 224.470,130.442 224.557,130.658 219.484 L 130.831 215.430 133.286 214.014 L 135.742 212.599 135.843 198.194 L 135.944 183.789 132.132 181.641 C 130.036 180.459,128.203 179.439,128.060 179.373 C 127.917 179.307,127.723 179.483,127.628 179.764 C 127.533 180.044,127.499 179.978,127.551 179.617 C 127.604 179.256,127.205 178.553,126.664 178.054 C 124.899 176.429,124.614 175.107,124.551 168.274 L 124.492 161.914 124.177 167.578 C 123.993 170.896,124.011 173.793,124.221 174.573 C 124.419 175.305,124.495 176.041,124.391 176.209 C 124.287 176.377,124.485 176.673,124.831 176.866 C 125.406 177.188,125.407 177.272,124.839 177.839 C 124.162 178.516,123.978 181.250,124.609 181.250 C 124.844 181.250,125.000 182.813,125.000 185.156 L 125.000 189.063 123.438 189.063 C 122.135 189.063,121.875 188.932,121.875 188.281 C 121.875 187.630,121.615 187.500,120.313 187.500 C 119.010 187.500,118.750 187.630,118.750 188.281 C 118.750 189.041,118.490 189.063,109.375 189.063 C 100.260 189.063,100.000 189.041,100.000 188.281 C 100.000 187.630,99.740 187.500,98.438 187.500 C 97.135 187.500,96.875 187.630,96.875 188.281 C 96.875 188.997,96.615 189.063,93.750 189.063 C 90.885 189.063,90.625 188.997,90.625 188.281 C 90.625 187.630,90.365 187.500,89.063 187.500 L 87.500 187.500 87.500 189.063 L 87.500 190.625 85.938 190.625 L 84.375 190.625 84.375 189.063 L 84.375 187.500 82.813 187.500 L 81.250 187.500 81.250 189.063 C 81.250 190.521,81.176 190.625,80.134 190.625 C 78.781 190.625,78.556 192.005,78.451 200.936 C 78.299 213.852,77.816 184.484,77.548 146.094 L 77.267 105.664 78.462 100.862 C 83.107 82.204,97.483 68.639,116.016 65.431 C 120.792 64.604,278.665 64.617,283.445 65.444 M146.875 154.472 C 146.875 154.580,147.402 154.940,148.047 155.273 C 148.691 155.607,149.219 155.792,149.219 155.684 C 149.219 155.577,148.691 155.216,148.047 154.883 C 147.402 154.550,146.875 154.365,146.875 154.472 M128.443 157.774 C 127.460 158.398,126.542 159.093,126.402 159.318 C 126.197 159.650,129.857 157.365,130.436 156.799 C 130.908 156.339,130.027 156.770,128.443 157.774 M151.563 157.161 C 151.563 157.247,152.293 157.802,153.187 158.393 C 154.080 158.984,155.230 159.920,155.742 160.473 C 156.254 161.025,156.567 161.201,156.438 160.863 C 156.085 159.943,151.563 156.509,151.563 157.161 M269.922 157.520 C 270.029 157.641,271.082 158.388,272.262 159.180 C 273.441 159.972,274.104 160.287,273.736 159.879 C 273.367 159.472,272.314 158.725,271.396 158.219 C 270.478 157.713,269.814 157.399,269.922 157.520 M137.012 163.185 L 133.594 165.018 133.598 168.740 L 133.601 172.461 137.113 174.340 C 139.751 175.751,140.625 176.067,140.625 175.609 C 140.625 175.274,140.811 175.000,141.039 175.000 C 141.266 175.000,141.343 175.177,141.209 175.394 C 141.067 175.624,141.376 175.600,141.955 175.336 C 142.499 175.089,142.853 174.738,142.741 174.557 C 142.629 174.376,142.766 174.310,143.046 174.411 C 143.326 174.512,144.434 174.114,145.508 173.526 L 147.461 172.458 147.461 168.765 L 147.461 165.073 144.336 163.215 C 140.547 160.962,141.153 160.964,137.012 163.185 M255.176 163.127 L 251.953 164.910 251.955 168.686 L 251.956 172.461 254.982 174.023 C 256.646 174.883,258.226 175.562,258.492 175.532 C 258.758 175.503,258.880 175.635,258.762 175.825 C 258.414 176.388,259.101 176.219,260.257 175.456 C 260.850 175.066,261.201 174.599,261.038 174.420 C 260.875 174.240,260.955 174.216,261.216 174.365 C 261.476 174.515,262.575 174.189,263.657 173.640 L 265.625 172.643 265.625 168.787 L 265.625 164.931 262.402 163.227 C 258.290 161.053,258.907 161.062,255.176 163.127 M142.188 162.500 C 142.725 162.920,143.350 163.268,143.578 163.273 C 144.726 163.297,145.484 164.337,144.830 164.991 C 144.059 165.763,143.594 165.813,143.869 165.097 C 143.981 164.806,143.722 164.268,143.294 163.902 C 142.391 163.129,141.406 163.644,141.406 164.892 C 141.406 165.365,141.129 165.625,140.625 165.625 C 140.195 165.625,139.844 165.801,139.844 166.016 C 139.844 166.230,139.316 166.406,138.672 166.406 C 138.027 166.406,137.500 166.582,137.500 166.797 C 137.500 167.012,138.027 167.188,138.672 167.188 C 139.583 167.188,139.844 167.361,139.844 167.969 C 139.844 168.490,140.104 168.750,140.625 168.750 C 141.198 168.750,141.406 169.010,141.406 169.727 C 141.406 170.264,141.230 170.703,141.016 170.703 C 140.801 170.703,140.625 170.891,140.625 171.122 C 140.625 171.867,139.535 172.656,138.504 172.656 C 137.872 172.656,137.500 172.873,137.500 173.242 C 137.500 173.972,137.568 173.979,135.691 173.072 L 134.126 172.316 134.036 168.810 C 133.975 166.413,134.095 165.212,134.416 165.014 C 134.714 164.829,134.784 164.888,134.608 165.174 C 134.357 165.580,134.522 165.640,135.840 165.621 C 136.001 165.618,136.133 165.312,136.133 164.941 C 136.134 164.296,139.895 161.708,140.803 161.727 C 141.027 161.732,141.650 162.080,142.188 162.500 M259.027 162.811 C 258.789 162.891,258.594 163.556,258.594 164.290 C 258.594 165.024,258.418 165.625,258.203 165.625 C 257.988 165.625,257.813 165.449,257.813 165.234 C 257.813 165.020,257.278 164.844,256.625 164.844 C 255.657 164.844,255.527 164.748,255.921 164.327 C 256.187 164.042,256.853 163.867,257.401 163.938 C 258.348 164.059,258.339 164.037,257.227 163.496 L 256.055 162.926 257.129 162.908 C 257.720 162.899,258.182 162.759,258.157 162.598 C 258.034 161.820,258.259 161.670,258.832 162.145 C 259.225 162.471,259.298 162.721,259.027 162.811 M147.220 168.499 C 147.170 172.020,147.039 171.864,146.564 167.717 C 146.309 165.483,146.347 164.965,146.755 165.122 C 147.123 165.263,147.253 166.207,147.220 168.499 M253.516 165.453 C 253.516 165.788,253.350 165.959,253.147 165.834 C 252.942 165.707,252.713 166.434,252.631 167.471 L 252.485 169.336 252.414 167.318 C 252.351 165.509,252.491 165.167,253.418 164.875 C 253.472 164.858,253.516 165.118,253.516 165.453 M258.566 169.629 C 258.509 171.479,257.869 172.167,257.840 170.410 C 257.825 169.497,257.988 168.750,258.203 168.750 C 258.418 168.750,258.581 169.146,258.566 169.629 M254.097 172.258 C 254.246 172.499,254.607 172.469,255.078 172.175 C 255.488 171.919,255.964 171.859,256.135 172.041 C 256.305 172.223,256.226 172.451,255.957 172.547 C 255.688 172.643,255.469 172.967,255.469 173.266 C 255.469 173.706,255.280 173.725,254.492 173.366 C 253.955 173.122,253.516 172.787,253.516 172.622 C 253.516 172.458,253.208 172.243,252.832 172.144 C 252.304 172.006,252.343 171.955,253.004 171.920 C 253.475 171.895,253.967 172.047,254.097 172.258 M79.031 186.719 C 79.031 188.115,79.102 188.687,79.189 187.988 C 79.275 187.290,79.275 186.147,79.189 185.449 C 79.102 184.751,79.031 185.322,79.031 186.719 M93.750 186.719 C 93.750 187.370,94.010 187.500,95.313 187.500 C 96.615 187.500,96.875 187.370,96.875 186.719 C 96.875 186.068,96.615 185.938,95.313 185.938 C 94.010 185.938,93.750 186.068,93.750 186.719 M100.000 186.719 C 100.000 187.370,100.260 187.500,101.563 187.500 C 102.865 187.500,103.125 187.370,103.125 186.719 C 103.125 186.068,102.865 185.938,101.563 185.938 C 100.260 185.938,100.000 186.068,100.000 186.719 M106.250 186.719 C 106.250 187.370,106.510 187.500,107.813 187.500 C 109.115 187.500,109.375 187.370,109.375 186.719 C 109.375 186.068,109.115 185.938,107.813 185.938 C 106.510 185.938,106.250 186.068,106.250 186.719 M162.150 188.205 C 161.920 188.635,161.912 189.129,162.131 189.474 C 162.327 189.785,162.491 194.011,162.494 198.865 C 162.501 209.150,163.036 207.949,157.129 210.899 L 153.125 212.898 153.125 202.552 C 153.125 192.239,153.128 192.204,154.004 191.679 C 154.487 191.389,155.991 190.490,157.345 189.680 C 159.079 188.643,160.079 188.275,160.723 188.437 C 161.334 188.590,161.711 188.473,161.861 188.083 C 161.984 187.762,162.184 187.500,162.306 187.500 C 162.428 187.500,162.358 187.817,162.150 188.205 M157.462 189.178 C 156.961 189.680,156.453 189.292,156.824 188.691 C 156.968 188.459,157.264 188.379,157.483 188.514 C 157.750 188.679,157.743 188.898,157.462 189.178 M241.663 188.585 C 240.990 188.733,240.997 188.781,241.761 189.316 C 242.211 189.631,242.799 189.763,243.067 189.608 C 243.335 189.454,243.427 189.469,243.272 189.641 C 243.116 189.813,243.748 190.435,244.676 191.023 L 246.362 192.093 246.631 195.911 C 246.778 198.011,246.779 202.688,246.632 206.305 L 246.365 212.880 242.616 210.889 C 236.712 207.754,237.064 208.582,237.132 197.979 C 237.163 193.047,237.282 189.105,237.396 189.219 C 237.509 189.332,237.936 189.192,238.343 188.907 C 238.751 188.621,239.826 188.396,240.734 188.407 C 241.641 188.417,242.059 188.497,241.663 188.585 M126.000 209.547 C 127.466 210.716,128.803 211.587,128.970 211.484 C 129.137 211.381,129.280 221.982,129.288 235.043 C 129.295 248.103,129.412 260.133,129.547 261.775 L 129.793 264.762 135.502 267.853 L 141.211 270.944 141.321 275.707 C 141.455 281.560,141.885 281.449,134.362 277.509 C 121.447 270.745,121.602 270.842,120.915 269.031 C 119.858 266.242,120.188 208.764,121.266 207.976 C 122.496 207.077,123.189 207.307,126.000 209.547 M278.438 207.891 C 279.154 208.607,279.083 268.576,278.365 269.872 C 277.818 270.857,260.168 280.456,258.887 280.464 C 258.276 280.468,258.203 279.999,258.203 276.037 C 258.203 270.706,257.840 271.174,264.769 267.575 L 269.727 265.000 269.827 238.884 C 269.904 218.773,270.039 212.633,270.413 212.177 C 273.033 208.982,277.267 206.720,278.438 207.891 M193.750 213.477 C 193.213 213.784,192.422 214.046,191.992 214.061 C 191.272 214.084,191.264 214.117,191.897 214.486 C 192.591 214.890,194.922 213.897,194.922 213.197 C 194.922 212.808,194.917 212.810,193.750 213.477 M196.387 222.890 L 192.969 224.618 192.969 228.479 L 192.969 232.340 196.387 234.112 L 199.805 235.884 203.223 234.061 L 206.641 232.237 206.641 228.516 L 206.641 224.794 203.223 222.978 L 199.805 221.162 196.387 222.890 M150.470 223.382 C 152.038 224.210,155.869 226.255,158.984 227.925 C 162.100 229.594,172.548 235.084,182.204 240.124 L 199.759 249.288 201.930 248.126 C 205.272 246.338,217.577 239.877,227.539 234.681 C 232.480 232.103,239.637 228.333,243.443 226.302 C 252.548 221.444,254.232 221.074,255.415 223.671 C 256.323 225.664,256.015 282.118,255.090 283.295 C 254.647 283.858,248.317 287.463,240.149 291.804 C 232.354 295.946,222.285 301.305,217.773 303.713 C 206.565 309.694,200.265 312.891,199.687 312.891 C 199.021 312.891,193.936 310.309,180.859 303.331 C 174.736 300.063,164.205 294.505,157.455 290.980 C 147.826 285.950,145.029 284.318,144.465 283.398 C 143.779 282.283,143.749 280.804,143.845 252.797 L 143.945 223.368 144.867 222.622 C 146.200 221.543,147.264 221.687,150.470 223.382 M153.125 256.793 L 153.125 278.430 162.988 283.607 C 168.413 286.455,174.521 289.707,176.563 290.835 C 178.604 291.963,184.668 295.202,190.039 298.032 L 199.805 303.178 203.320 301.341 C 205.254 300.331,215.098 295.063,225.195 289.634 C 235.293 284.206,244.214 279.451,245.020 279.068 L 246.484 278.371 246.484 256.764 C 246.484 244.880,246.374 235.156,246.239 235.156 C 246.104 235.156,243.424 236.497,240.282 238.135 C 227.151 244.983,216.441 250.624,214.063 251.944 L 211.523 253.354 211.408 255.539 C 211.264 258.244,211.257 258.251,204.925 261.555 L 199.889 264.184 196.136 262.336 C 194.072 261.319,191.460 259.937,190.332 259.263 L 188.281 258.038 188.281 255.999 C 188.281 253.485,188.678 253.790,178.320 248.335 C 174.023 246.072,166.669 242.181,161.977 239.688 C 157.286 237.196,153.375 235.156,153.286 235.156 C 153.197 235.156,153.125 244.893,153.125 256.793 M229.637 265.430 C 229.658 270.371,229.546 274.608,229.389 274.844 C 228.853 275.647,212.049 284.847,201.841 289.927 L 199.581 291.052 192.661 287.448 C 177.488 279.546,171.255 276.118,170.551 275.286 C 169.867 274.479,169.777 247.671,170.455 246.993 C 170.542 246.906,172.663 247.854,175.169 249.101 L 179.725 251.367 179.684 255.664 C 179.662 258.027,179.653 262.281,179.665 265.116 L 179.688 270.272 182.910 271.995 C 184.683 272.943,189.186 275.352,192.917 277.348 L 199.700 280.977 201.706 279.959 C 206.499 277.524,216.741 272.135,218.262 271.248 L 219.922 270.280 219.966 265.511 C 219.991 262.888,220.123 258.509,220.259 255.779 L 220.508 250.816 224.805 248.709 L 229.102 246.602 229.350 251.524 C 229.487 254.231,229.616 260.488,229.637 265.430 " stroke="none" fill="#040c26" fill-rule="evenodd"></path><path id="path2" d="M119.047 66.240 C 118.917 66.370,117.869 66.542,116.719 66.624 C 109.928 67.104,99.862 71.830,93.055 77.736 C 85.023 84.705,83.963 86.218,80.057 96.289 C 79.745 97.092,78.516 102.103,78.516 102.570 C 78.516 102.713,78.779 102.611,79.102 102.344 C 79.589 101.939,79.688 101.989,79.688 102.645 C 79.688 103.078,79.424 103.533,79.102 103.657 C 78.779 103.781,78.516 104.063,78.516 104.285 C 78.516 104.506,78.779 104.688,79.102 104.688 C 79.424 104.688,79.688 104.863,79.688 105.078 C 79.688 105.293,80.039 105.469,80.469 105.469 C 80.898 105.469,81.250 105.293,81.250 105.078 C 81.250 104.850,82.552 104.688,84.375 104.688 L 87.500 104.688 87.500 103.125 L 87.500 101.563 96.875 101.563 L 106.250 101.563 106.250 103.125 L 106.250 104.688 107.813 104.688 L 109.375 104.688 109.375 102.344 L 109.375 100.000 110.724 100.000 C 112.865 100.000,114.063 100.723,114.063 102.016 C 114.063 103.111,114.092 103.125,116.406 103.125 C 118.490 103.125,118.750 103.038,118.750 102.344 C 118.750 101.577,119.010 101.563,132.813 101.563 C 146.615 101.563,146.875 101.577,146.875 102.344 C 146.875 102.995,147.135 103.125,148.438 103.125 L 150.000 103.125 150.000 101.563 L 150.000 100.000 151.563 100.000 L 153.125 100.000 153.125 101.563 L 153.125 103.125 154.688 103.125 C 155.990 103.125,156.250 103.255,156.250 103.906 C 156.250 104.622,156.510 104.688,159.375 104.688 C 162.240 104.688,162.500 104.622,162.500 103.906 C 162.500 103.255,162.760 103.125,164.063 103.125 C 165.365 103.125,165.625 103.255,165.625 103.906 C 165.625 104.553,165.885 104.688,167.140 104.688 C 168.677 104.688,169.811 105.481,169.347 106.233 C 169.208 106.457,169.291 106.641,169.531 106.641 C 169.771 106.641,169.858 106.819,169.723 107.038 C 169.588 107.256,169.286 107.317,169.053 107.173 C 168.810 107.022,168.741 107.091,168.891 107.335 C 169.035 107.568,168.988 107.861,168.786 107.986 C 168.584 108.111,168.329 107.903,168.219 107.524 C 168.077 107.035,168.040 107.081,168.092 107.682 C 168.132 108.147,167.729 109.026,167.196 109.635 C 166.664 110.244,167.323 109.693,168.661 108.411 C 170.974 106.194,171.857 105.143,170.435 106.300 C 169.854 106.772,169.808 106.750,170.044 106.120 C 170.192 105.727,170.313 105.321,170.313 105.218 C 170.313 105.116,170.488 105.141,170.703 105.273 C 170.918 105.406,171.094 105.329,171.094 105.101 C 171.094 104.874,171.280 104.688,171.507 104.688 C 171.735 104.687,171.799 104.907,171.650 105.176 C 171.501 105.444,173.152 103.919,175.318 101.785 C 177.484 99.652,179.150 97.735,179.021 97.526 C 178.891 97.316,178.959 97.252,179.170 97.383 C 179.381 97.513,180.507 96.627,181.672 95.413 C 182.836 94.200,183.438 93.461,183.008 93.771 C 182.288 94.292,182.268 94.283,182.759 93.657 C 183.052 93.283,183.420 93.056,183.576 93.153 C 184.013 93.423,186.383 90.814,186.042 90.439 C 185.877 90.258,185.950 90.228,186.203 90.373 C 186.663 90.637,187.287 90.001,187.299 89.258 C 187.302 89.043,187.494 88.867,187.725 88.867 C 188.344 88.867,190.612 86.624,190.378 86.244 C 190.267 86.065,190.409 85.966,190.694 86.025 C 190.978 86.085,191.189 85.839,191.162 85.480 C 191.135 85.121,191.317 84.906,191.566 85.001 C 191.815 85.097,193.155 83.996,194.544 82.555 C 195.934 81.114,196.807 80.076,196.484 80.248 C 196.162 80.420,196.460 80.012,197.147 79.343 C 197.833 78.673,198.591 78.125,198.830 78.125 C 199.069 78.125,199.168 77.968,199.049 77.775 C 198.930 77.583,199.081 77.330,199.384 77.214 C 199.687 77.098,200.032 77.255,200.151 77.564 C 200.269 77.872,200.542 78.125,200.756 78.125 C 201.398 78.125,205.893 82.649,205.571 82.971 C 205.407 83.134,205.473 83.210,205.716 83.138 C 205.960 83.066,207.582 84.471,209.321 86.259 C 211.269 88.261,212.660 89.401,212.943 89.226 C 213.243 89.040,213.297 89.111,213.099 89.432 C 212.674 90.119,217.088 94.545,217.891 94.237 C 218.295 94.082,218.392 94.163,218.190 94.489 C 217.867 95.012,218.981 96.488,219.689 96.478 C 219.925 96.475,219.854 96.302,219.531 96.094 C 219.086 95.806,219.072 95.714,219.470 95.709 C 219.759 95.706,220.086 96.053,220.198 96.480 C 220.310 96.907,220.555 97.162,220.743 97.046 C 220.931 96.929,220.994 97.072,220.882 97.362 C 220.771 97.652,221.160 98.320,221.746 98.847 L 222.812 99.805 222.225 98.828 C 221.304 97.296,221.696 96.351,223.132 96.638 C 223.784 96.768,224.470 96.875,224.658 96.875 C 224.846 96.875,225.000 97.227,225.000 97.656 C 225.000 98.177,225.260 98.438,225.781 98.438 C 226.302 98.438,226.563 98.698,226.563 99.219 C 226.563 99.740,226.823 100.000,227.344 100.000 C 227.773 100.000,228.125 100.245,228.125 100.544 C 228.125 101.174,228.957 101.563,230.305 101.563 C 230.990 101.563,231.250 101.347,231.250 100.781 C 231.250 100.130,231.510 100.000,232.813 100.000 C 234.115 100.000,234.375 100.130,234.375 100.781 C 234.375 101.432,234.635 101.563,235.938 101.563 C 237.240 101.563,237.500 101.693,237.500 102.344 C 237.500 103.116,237.760 103.125,260.938 103.125 L 284.375 103.125 284.375 101.563 L 284.375 100.000 293.689 100.000 C 298.811 100.000,305.139 100.115,307.751 100.255 L 312.500 100.511 312.500 101.818 L 312.500 103.125 316.389 103.125 L 320.277 103.125 320.470 104.395 C 320.821 106.705,321.097 125.985,321.189 154.688 C 321.240 170.264,321.377 189.863,321.494 198.242 C 321.611 206.621,321.700 188.779,321.691 158.594 L 321.675 103.711 320.836 100.769 C 319.653 96.619,317.593 91.406,317.136 91.406 C 316.924 91.406,316.848 91.249,316.967 91.057 C 317.086 90.864,316.902 90.599,316.559 90.467 C 316.203 90.331,316.031 89.977,316.158 89.645 C 316.281 89.325,316.218 89.063,316.018 89.063 C 315.818 89.063,314.923 87.986,314.030 86.671 C 307.140 76.525,297.428 69.889,285.156 66.940 C 282.218 66.234,119.738 65.549,119.047 66.240 M307.227 77.734 C 308.502 79.023,309.634 80.078,309.741 80.078 C 309.849 80.078,308.893 79.023,307.617 77.734 C 306.342 76.445,305.210 75.391,305.103 75.391 C 304.995 75.391,305.951 76.445,307.227 77.734 M90.802 78.613 L 89.258 80.273 90.918 78.729 C 91.831 77.880,92.578 77.133,92.578 77.069 C 92.578 76.774,92.238 77.069,90.802 78.613 M182.031 94.653 C 182.031 94.721,181.460 95.292,180.762 95.923 L 179.492 97.070 180.639 95.801 C 181.709 94.617,182.031 94.352,182.031 94.653 M175.000 101.758 C 172.204 104.572,171.549 105.140,172.070 104.297 C 172.203 104.082,172.038 103.906,171.703 103.906 C 170.946 103.906,170.932 103.622,171.651 102.902 C 172.134 102.420,172.227 102.436,172.346 103.028 C 172.453 103.557,173.053 103.161,175.011 101.270 C 178.531 97.872,178.524 98.211,175.000 101.758 M159.375 101.563 L 159.375 103.125 157.813 103.125 L 156.250 103.125 156.250 101.563 L 156.250 100.000 157.813 100.000 L 159.375 100.000 159.375 101.563 M225.237 102.157 C 225.768 102.967,226.563 103.168,226.563 102.493 C 226.563 102.386,226.387 102.406,226.172 102.539 C 225.957 102.672,225.781 102.525,225.781 102.213 C 225.781 101.901,225.517 101.545,225.194 101.421 C 224.693 101.228,224.699 101.336,225.237 102.157 M241.016 118.945 C 244.341 122.275,247.149 125.000,247.256 125.000 C 247.364 125.000,244.731 122.275,241.406 118.945 C 238.081 115.615,235.273 112.891,235.166 112.891 C 235.058 112.891,237.691 115.615,241.016 118.945 M148.776 128.621 C 148.942 128.786,153.108 128.874,158.035 128.816 L 166.992 128.710 157.734 128.515 C 152.642 128.408,148.611 128.456,148.776 128.621 M229.804 128.807 C 231.695 128.879,234.683 128.878,236.445 128.806 C 238.207 128.734,236.660 128.675,233.008 128.675 C 229.355 128.676,227.914 128.735,229.804 128.807 M173.229 149.414 C 173.229 160.586,173.279 165.100,173.340 159.445 C 173.401 153.791,173.401 144.650,173.339 139.133 C 173.278 133.616,173.228 138.242,173.229 149.414 M124.767 168.359 C 124.767 171.689,124.827 173.052,124.900 171.387 C 124.973 169.722,124.973 166.997,124.900 165.332 C 124.827 163.667,124.767 165.029,124.767 168.359 M147.784 167.773 C 147.786 169.277,147.857 169.845,147.941 169.034 C 148.026 168.224,148.024 166.993,147.938 166.300 C 147.852 165.606,147.783 166.270,147.784 167.773 M274.746 171.094 C 274.746 172.920,274.813 173.667,274.895 172.754 C 274.978 171.841,274.978 170.347,274.895 169.434 C 274.813 168.521,274.746 169.268,274.746 171.094 M263.443 191.016 C 263.443 194.990,263.501 196.616,263.572 194.629 C 263.643 192.642,263.643 189.390,263.572 187.402 C 263.501 185.415,263.443 187.041,263.443 191.016 M194.525 186.719 C 194.342 187.665,194.208 187.704,190.234 187.963 C 182.458 188.469,182.827 188.082,182.818 195.753 C 182.814 199.986,182.693 201.175,182.231 201.559 C 181.911 201.824,181.734 202.178,181.837 202.345 C 181.940 202.512,181.568 202.948,181.010 203.314 C 179.896 204.043,180.094 204.452,181.748 204.842 C 182.608 205.045,183.027 204.887,183.779 204.076 C 184.567 203.226,184.934 203.100,185.966 203.327 C 186.831 203.516,187.306 203.438,187.535 203.069 C 187.769 202.690,188.810 202.539,191.195 202.539 C 194.467 202.539,194.529 202.521,194.612 201.563 C 194.658 201.025,194.798 203.398,194.922 206.836 L 195.147 213.086 195.179 206.836 C 195.219 198.994,194.777 185.415,194.525 186.719 M207.181 187.007 L 204.792 187.144 204.505 197.700 C 204.348 203.505,204.324 208.361,204.453 208.490 C 204.582 208.619,204.708 207.069,204.733 205.046 C 204.758 203.022,204.863 201.719,204.966 202.148 C 205.277 203.440,205.859 203.775,205.859 202.662 C 205.859 201.414,206.698 201.241,212.369 201.315 C 215.750 201.359,216.273 201.285,215.885 200.815 C 215.504 200.353,215.558 200.331,216.211 200.679 C 216.978 201.089,216.988 201.012,216.736 196.349 C 216.595 193.738,216.450 190.459,216.412 189.063 C 216.375 187.666,216.267 186.711,216.171 186.941 C 216.057 187.215,215.299 187.258,213.956 187.067 C 211.874 186.770,211.373 186.766,207.181 187.007 M145.096 202.930 C 145.096 209.805,145.149 212.562,145.214 209.057 C 145.279 205.553,145.279 199.928,145.214 196.557 C 145.149 193.187,145.096 196.055,145.096 202.930 M120.483 225.977 C 120.483 231.777,120.538 234.205,120.604 231.371 C 120.671 228.537,120.671 223.791,120.605 220.824 C 120.538 217.857,120.484 220.176,120.483 225.977 M255.654 252.930 C 255.654 268.613,255.702 274.972,255.762 267.061 C 255.821 259.150,255.821 246.318,255.762 238.545 C 255.702 230.773,255.654 237.246,255.654 252.930 M270.102 246.680 C 270.102 256.563,270.153 260.549,270.215 255.540 C 270.276 250.530,270.276 242.444,270.214 237.571 C 270.152 232.698,270.102 236.797,270.102 246.680 M152.917 256.445 C 152.917 268.477,152.966 273.455,153.027 267.508 C 153.088 261.562,153.088 251.718,153.027 245.633 C 152.967 239.549,152.917 244.414,152.917 256.445 M246.484 256.562 L 246.679 278.320 246.781 256.859 C 246.836 245.055,246.748 235.264,246.585 235.101 C 246.422 234.938,246.377 244.595,246.484 256.562 M143.849 271.289 C 143.853 272.148,143.933 272.454,144.026 271.968 C 144.120 271.482,144.116 270.779,144.018 270.406 C 143.921 270.032,143.844 270.430,143.849 271.289 " stroke="none" fill="#273e69" fill-rule="evenodd"></path><path id="path3" d="M197.070 79.358 C 196.270 80.169,196.148 80.421,196.684 80.153 C 197.608 79.691,199.110 78.115,198.596 78.147 C 198.401 78.160,197.715 78.704,197.070 79.358 M212.095 89.627 C 218.412 95.953,223.751 101.024,223.960 100.895 C 224.169 100.766,224.230 100.838,224.096 101.055 C 223.962 101.272,224.321 101.870,224.895 102.385 L 225.937 103.320 225.272 102.258 C 224.719 101.375,224.706 101.234,225.194 101.421 C 225.517 101.545,225.781 101.901,225.781 102.213 C 225.781 102.525,225.955 102.673,226.167 102.542 C 226.388 102.405,226.455 102.561,226.322 102.906 C 226.058 103.594,231.132 109.103,231.704 108.750 C 231.895 108.632,232.002 108.768,231.943 109.053 C 231.877 109.374,232.154 109.538,232.675 109.484 C 233.296 109.421,233.469 109.573,233.341 110.070 C 233.219 110.541,235.744 113.301,241.779 119.295 C 246.515 124.000,250.391 127.979,250.391 128.137 C 250.391 128.468,228.661 129.100,227.160 128.813 L 226.172 128.624 226.172 148.233 C 226.172 175.818,226.464 184.375,227.406 184.375 C 227.801 184.375,228.125 184.199,228.125 183.984 C 228.125 183.770,228.828 183.594,229.688 183.594 C 230.547 183.594,231.250 183.754,231.250 183.950 C 231.250 184.146,231.953 184.425,232.813 184.570 C 233.773 184.733,234.375 185.047,234.375 185.386 C 234.375 185.824,235.178 185.938,238.281 185.938 C 241.927 185.938,242.188 185.885,242.188 185.156 C 242.188 184.635,242.448 184.375,242.969 184.375 C 243.604 184.375,243.750 184.115,243.750 182.982 C 243.750 180.783,244.357 179.978,245.779 180.290 C 246.606 180.472,246.891 180.420,246.706 180.120 C 246.559 179.882,245.838 179.687,245.104 179.688 C 243.834 179.688,243.788 179.639,244.149 178.689 C 244.358 178.139,244.377 177.784,244.192 177.898 C 243.598 178.265,242.578 176.802,242.983 176.163 C 243.529 175.298,243.434 174.748,242.871 175.520 C 242.475 176.062,242.404 174.817,242.497 168.954 C 242.577 163.927,242.745 161.719,243.051 161.719 C 243.292 161.719,243.396 161.625,243.281 161.510 C 243.029 161.259,245.635 158.594,246.133 158.594 C 246.326 158.594,246.484 158.418,246.484 158.203 C 246.484 157.988,246.748 157.813,247.070 157.813 C 247.393 157.813,247.656 157.626,247.656 157.399 C 247.656 157.171,247.814 157.082,248.006 157.201 C 248.198 157.320,248.461 157.144,248.589 156.809 C 248.718 156.474,249.001 156.311,249.219 156.445 C 249.437 156.580,249.720 156.416,249.848 156.082 C 249.977 155.747,250.239 155.570,250.432 155.689 C 250.624 155.808,250.781 155.719,250.781 155.492 C 250.781 155.264,251.045 155.078,251.367 155.078 C 251.689 155.078,251.953 154.892,251.953 154.664 C 251.953 154.437,252.106 154.345,252.293 154.461 C 252.480 154.576,253.139 154.235,253.758 153.703 C 254.376 153.171,255.180 152.735,255.543 152.735 C 255.907 152.735,256.299 152.581,256.415 152.393 C 256.589 152.111,259.877 152.082,260.547 152.356 C 260.654 152.400,260.874 152.415,261.035 152.390 C 261.196 152.365,261.328 152.530,261.328 152.757 C 261.328 152.985,261.504 153.062,261.719 152.930 C 261.934 152.797,262.109 152.904,262.109 153.167 C 262.109 153.430,262.218 153.537,262.351 153.404 C 262.484 153.271,262.850 153.419,263.164 153.733 C 263.478 154.047,263.896 154.204,264.094 154.082 C 264.292 153.960,264.453 154.046,264.453 154.274 C 264.453 154.501,264.717 154.688,265.039 154.688 C 265.361 154.688,265.625 154.874,265.625 155.101 C 265.625 155.329,265.801 155.406,266.016 155.273 C 266.230 155.141,266.406 155.229,266.406 155.469 C 266.406 155.709,266.583 155.796,266.800 155.662 C 267.016 155.529,267.298 155.693,267.427 156.028 C 267.555 156.362,267.817 156.539,268.010 156.420 C 268.202 156.301,268.359 156.385,268.359 156.605 C 268.359 156.826,268.623 156.906,268.945 156.782 C 269.316 156.640,269.531 156.787,269.531 157.185 C 269.531 157.530,269.663 157.778,269.824 157.735 C 270.485 157.561,271.869 158.288,271.625 158.682 C 271.476 158.924,271.545 158.993,271.786 158.844 C 272.019 158.700,272.705 159.039,273.312 159.596 C 273.918 160.154,274.150 160.495,273.828 160.354 C 273.506 160.213,273.594 160.383,274.023 160.731 C 274.706 161.283,274.797 161.793,274.746 164.763 C 274.698 167.592,274.737 167.836,274.978 166.211 C 275.184 164.826,275.278 165.963,275.302 170.117 C 275.320 173.340,275.216 176.274,275.070 176.638 C 274.924 177.001,274.861 178.891,274.930 180.837 L 275.055 184.375 278.153 184.375 L 281.250 184.375 281.250 185.938 L 281.250 187.500 284.375 187.500 C 287.240 187.500,287.500 187.565,287.500 188.281 C 287.500 188.932,287.760 189.063,289.063 189.063 C 290.365 189.063,290.625 188.932,290.625 188.281 C 290.625 187.543,290.885 187.500,295.313 187.500 L 300.000 187.500 300.000 185.938 L 300.000 184.375 306.250 184.375 L 312.500 184.375 312.500 185.938 L 312.500 187.500 314.063 187.500 C 315.365 187.500,315.625 187.630,315.625 188.281 C 315.625 188.974,315.885 189.063,317.915 189.063 L 320.205 189.063 320.448 192.285 C 320.582 194.058,320.804 208.340,320.942 224.023 C 321.080 239.707,321.318 257.637,321.471 263.867 L 321.749 275.195 321.812 260.123 C 321.847 251.833,321.939 234.782,322.017 222.232 C 322.095 209.682,322.047 202.578,321.910 206.445 C 321.592 215.470,321.330 196.619,321.191 154.688 C 321.097 125.962,320.820 106.700,320.470 104.395 L 320.277 103.125 316.389 103.125 L 312.500 103.125 312.500 101.818 L 312.500 100.511 307.751 100.255 C 305.139 100.115,298.811 100.000,293.689 100.000 L 284.375 100.000 284.375 101.563 L 284.375 103.125 260.938 103.125 C 237.760 103.125,237.500 103.116,237.500 102.344 C 237.500 101.693,237.240 101.563,235.938 101.563 C 234.635 101.563,234.375 101.432,234.375 100.781 C 234.375 100.130,234.115 100.000,232.813 100.000 C 231.510 100.000,231.250 100.130,231.250 100.781 C 231.250 101.347,230.990 101.563,230.305 101.563 C 228.957 101.563,228.125 101.174,228.125 100.544 C 228.125 100.245,227.773 100.000,227.344 100.000 C 226.823 100.000,226.563 99.740,226.563 99.219 C 226.563 98.698,226.302 98.438,225.781 98.438 C 225.278 98.438,225.000 98.177,225.000 97.705 C 225.000 97.057,223.708 96.484,222.245 96.484 C 221.651 96.484,221.639 97.854,222.225 98.828 L 222.812 99.805 221.746 98.847 C 221.160 98.320,220.771 97.652,220.882 97.362 C 220.994 97.072,220.931 96.929,220.743 97.046 C 220.555 97.162,220.304 96.884,220.185 96.429 C 220.046 95.897,219.761 95.681,219.388 95.824 C 218.666 96.101,217.798 95.124,218.195 94.482 C 218.391 94.164,218.291 94.083,217.891 94.237 C 217.088 94.545,212.674 90.119,213.099 89.432 C 213.292 89.120,213.243 89.040,212.966 89.212 C 212.710 89.369,210.195 87.128,206.896 83.803 C 203.798 80.680,201.116 78.125,200.936 78.125 C 200.756 78.125,205.777 83.301,212.095 89.627 M80.116 94.980 C 79.599 96.465,79.578 96.760,80.028 96.270 C 80.402 95.862,80.973 93.750,80.710 93.750 C 80.619 93.750,80.352 94.304,80.116 94.980 M180.639 95.801 L 179.492 97.070 180.762 95.923 C 181.945 94.854,182.211 94.531,181.909 94.531 C 181.842 94.531,181.271 95.103,180.639 95.801 M78.348 101.287 L 77.263 105.878 77.547 146.201 C 77.816 184.543,78.300 213.798,78.451 200.936 C 78.556 192.005,78.781 190.625,80.134 190.625 C 81.176 190.625,81.250 190.521,81.250 189.063 L 81.250 187.500 82.813 187.500 L 84.375 187.500 84.375 189.063 L 84.375 190.625 85.938 190.625 L 87.500 190.625 87.500 189.063 L 87.500 187.500 89.063 187.500 C 90.365 187.500,90.625 187.630,90.625 188.281 C 90.625 188.997,90.885 189.063,93.750 189.063 C 96.615 189.063,96.875 188.997,96.875 188.281 C 96.875 187.630,97.135 187.500,98.438 187.500 C 99.740 187.500,100.000 187.630,100.000 188.281 C 100.000 189.041,100.260 189.063,109.375 189.063 C 118.490 189.063,118.750 189.041,118.750 188.281 C 118.750 187.630,119.010 187.500,120.313 187.500 C 121.615 187.500,121.875 187.630,121.875 188.281 C 121.875 188.932,122.135 189.063,123.438 189.063 L 125.000 189.063 125.000 185.156 C 125.000 182.813,124.844 181.250,124.609 181.250 C 124.395 181.250,124.219 180.547,124.219 179.688 C 124.219 178.828,124.352 178.125,124.515 178.125 C 124.679 178.125,125.018 177.795,125.270 177.392 C 125.645 176.791,125.619 176.667,125.124 176.708 C 124.154 176.788,123.957 174.719,124.131 166.286 C 124.196 163.179,124.339 162.138,124.676 162.346 C 124.981 162.535,125.052 162.417,124.887 161.989 C 124.573 161.169,127.876 157.613,128.560 158.035 C 128.829 158.202,128.925 158.158,128.785 157.933 C 128.653 157.718,129.460 157.121,130.581 156.607 C 131.701 156.093,132.705 155.565,132.813 155.434 C 133.147 155.025,134.946 154.127,135.254 154.214 C 135.415 154.260,135.547 154.111,135.547 153.883 C 135.547 153.656,135.723 153.578,135.938 153.711 C 136.152 153.844,136.328 153.766,136.328 153.539 C 136.328 153.311,136.680 153.125,137.109 153.125 C 137.539 153.125,137.891 152.979,137.891 152.799 C 137.891 152.446,137.978 152.427,140.723 152.196 C 141.743 152.109,142.578 152.206,142.578 152.410 C 142.578 152.614,142.754 152.672,142.969 152.539 C 143.184 152.406,143.359 152.484,143.359 152.711 C 143.359 152.939,143.491 153.087,143.652 153.040 C 144.261 152.863,146.484 153.886,146.484 154.342 C 146.484 154.603,146.595 154.708,146.729 154.573 C 147.061 154.242,149.219 155.386,149.219 155.892 C 149.219 156.114,149.396 156.187,149.612 156.053 C 149.828 155.919,150.111 156.084,150.239 156.418 C 150.367 156.753,150.630 156.930,150.822 156.811 C 151.015 156.692,151.172 156.781,151.172 157.008 C 151.172 157.236,151.304 157.401,151.465 157.376 C 152.210 157.258,152.761 157.454,152.566 157.768 C 152.449 157.959,152.658 158.091,153.032 158.061 C 153.407 158.032,153.663 158.239,153.604 158.525 C 153.545 158.810,153.643 158.952,153.822 158.841 C 154.343 158.519,156.243 160.261,156.534 161.328 C 156.680 161.865,156.859 165.385,156.932 169.150 L 157.064 175.994 155.903 177.295 C 155.264 178.010,154.556 178.480,154.329 178.340 C 154.077 178.184,154.006 178.321,154.147 178.688 C 154.274 179.021,154.516 179.207,154.684 179.104 C 154.852 179.000,155.081 179.265,155.192 179.692 C 155.340 180.256,155.726 180.469,156.604 180.469 C 157.269 180.469,157.813 180.645,157.813 180.859 C 157.813 181.074,157.109 181.250,156.250 181.250 L 154.688 181.250 154.688 184.208 C 154.688 187.597,155.993 189.752,156.789 187.677 C 157.065 186.958,158.166 187.069,158.984 187.899 C 159.307 188.226,159.477 188.361,159.364 188.200 C 158.477 186.942,159.500 184.766,160.979 184.766 C 162.341 184.766,162.500 184.664,162.500 183.789 C 162.500 182.910,162.656 182.813,164.063 182.813 C 165.365 182.813,165.625 182.682,165.625 182.031 C 165.625 181.337,165.885 181.250,167.969 181.250 C 169.271 181.250,170.313 181.076,170.313 180.859 C 170.313 180.645,170.644 180.469,171.048 180.469 C 171.663 180.469,171.839 180.901,172.117 183.105 C 172.572 186.713,172.924 172.749,173.010 147.656 L 173.074 128.711 161.196 128.862 C 154.663 128.945,149.125 128.894,148.889 128.748 C 148.387 128.438,150.327 126.359,161.281 115.460 C 165.584 111.180,168.997 107.505,168.867 107.294 C 168.736 107.083,168.800 107.016,169.010 107.146 C 169.219 107.275,171.312 105.417,173.660 103.016 C 177.477 99.114,177.614 98.731,173.900 102.344 C 172.733 103.479,172.470 103.595,172.352 103.028 C 172.228 102.436,172.134 102.420,171.651 102.902 C 170.921 103.633,170.947 103.906,171.748 103.906 C 172.325 103.906,172.314 103.992,171.650 104.638 C 171.237 105.040,170.779 105.301,170.634 105.218 C 170.488 105.135,170.256 105.421,170.119 105.854 C 169.982 106.287,169.695 106.641,169.482 106.641 C 169.269 106.641,169.208 106.457,169.347 106.233 C 169.811 105.481,168.677 104.688,167.140 104.688 C 165.885 104.688,165.625 104.553,165.625 103.906 C 165.625 103.255,165.365 103.125,164.063 103.125 C 162.760 103.125,162.500 103.255,162.500 103.906 C 162.500 104.622,162.240 104.688,159.375 104.688 C 156.510 104.688,156.250 104.622,156.250 103.906 C 156.250 103.255,156.510 103.125,157.813 103.125 L 159.375 103.125 159.375 101.563 L 159.375 100.000 157.813 100.000 L 156.250 100.000 156.250 101.563 L 156.250 103.125 154.688 103.125 L 153.125 103.125 153.125 101.563 L 153.125 100.000 151.563 100.000 L 150.000 100.000 150.000 101.563 L 150.000 103.125 148.438 103.125 C 147.135 103.125,146.875 102.995,146.875 102.344 C 146.875 101.577,146.615 101.563,132.813 101.563 C 119.010 101.563,118.750 101.577,118.750 102.344 C 118.750 103.038,118.490 103.125,116.406 103.125 C 114.092 103.125,114.063 103.111,114.063 102.016 C 114.063 100.723,112.865 100.000,110.724 100.000 L 109.375 100.000 109.375 102.344 L 109.375 104.688 107.813 104.688 L 106.250 104.688 106.250 103.125 L 106.250 101.563 96.875 101.563 L 87.500 101.563 87.500 103.125 L 87.500 104.688 84.375 104.688 C 82.552 104.688,81.250 104.850,81.250 105.078 C 81.250 105.293,80.898 105.469,80.469 105.469 C 80.039 105.469,79.688 105.293,79.688 105.078 C 79.688 104.863,79.424 104.688,79.102 104.688 C 78.779 104.688,78.516 104.506,78.516 104.285 C 78.516 104.063,78.779 103.781,79.102 103.657 C 79.424 103.533,79.688 103.078,79.688 102.645 C 79.688 101.989,79.589 101.939,79.102 102.344 C 78.373 102.949,78.374 102.808,79.122 99.922 C 79.455 98.635,79.661 97.383,79.580 97.139 C 79.499 96.895,78.944 98.761,78.348 101.287 M321.992 113.672 C 321.992 114.854,322.065 115.337,322.155 114.746 C 322.244 114.155,322.244 113.188,322.155 112.598 C 322.065 112.007,321.992 112.490,321.992 113.672 M322.032 132.422 C 322.032 135.752,322.092 137.114,322.165 135.449 C 322.239 133.784,322.239 131.060,322.165 129.395 C 322.092 127.729,322.032 129.092,322.032 132.422 M322.058 166.406 C 322.058 178.975,322.107 184.116,322.168 177.832 C 322.228 171.548,322.228 161.265,322.168 154.980 C 322.107 148.696,322.058 153.838,322.058 166.406 M140.083 161.790 C 140.276 162.102,140.135 162.155,139.627 161.960 C 139.222 161.805,139.017 161.803,139.171 161.957 C 139.579 162.366,137.146 163.739,136.598 163.410 C 136.342 163.257,136.382 163.439,136.687 163.814 C 137.146 164.380,137.150 164.477,136.705 164.378 C 136.411 164.312,136.161 164.521,136.151 164.844 C 136.131 165.473,135.895 165.625,134.938 165.625 C 134.603 165.625,134.430 165.461,134.554 165.261 C 134.677 165.061,134.610 164.794,134.405 164.667 C 134.175 164.525,134.049 166.078,134.076 168.703 C 134.114 172.309,134.211 172.935,134.703 172.747 C 135.033 172.620,135.181 172.691,135.044 172.912 C 134.912 173.127,135.188 173.287,135.664 173.271 C 136.140 173.255,136.482 173.454,136.430 173.716 C 136.377 173.990,136.583 174.096,136.919 173.968 C 137.238 173.845,137.500 173.500,137.500 173.200 C 137.500 172.876,137.906 172.656,138.504 172.656 C 139.535 172.656,140.625 171.867,140.625 171.122 C 140.625 170.891,140.801 170.703,141.016 170.703 C 141.230 170.703,141.406 170.264,141.406 169.727 C 141.406 169.010,141.198 168.750,140.625 168.750 C 140.104 168.750,139.844 168.490,139.844 167.969 C 139.844 167.361,139.583 167.188,138.672 167.188 C 138.027 167.188,137.500 167.012,137.500 166.797 C 137.500 166.582,138.027 166.406,138.672 166.406 C 139.316 166.406,139.844 166.230,139.844 166.016 C 139.844 165.801,140.195 165.625,140.625 165.625 C 141.129 165.625,141.406 165.365,141.406 164.892 C 141.406 163.644,142.391 163.129,143.294 163.902 C 143.722 164.268,143.981 164.806,143.869 165.097 C 143.562 165.897,144.154 165.730,144.974 164.784 C 145.762 163.875,145.869 163.624,145.410 163.757 C 144.691 163.966,142.536 162.884,142.804 162.450 C 142.987 162.154,142.921 162.093,142.621 162.278 C 142.364 162.437,141.941 162.404,141.682 162.204 C 140.862 161.570,139.773 161.289,140.083 161.790 M258.157 161.964 C 258.131 162.151,258.131 162.437,258.157 162.598 C 258.182 162.759,257.720 162.899,257.129 162.908 L 256.055 162.926 257.227 163.496 C 258.339 164.037,258.348 164.059,257.401 163.938 C 256.853 163.867,256.187 164.042,255.921 164.327 C 255.527 164.748,255.657 164.844,256.625 164.844 C 257.278 164.844,257.813 165.020,257.813 165.234 C 257.813 165.449,257.988 165.625,258.203 165.625 C 258.418 165.625,258.594 165.024,258.594 164.290 C 258.594 163.556,258.789 162.891,259.027 162.811 C 259.298 162.721,259.225 162.471,258.832 162.145 C 258.486 161.858,258.182 161.776,258.157 161.964 M146.569 167.759 C 147.043 171.905,147.129 171.973,147.302 168.344 C 147.436 165.529,147.367 165.009,146.858 165.010 C 146.342 165.011,146.300 165.407,146.569 167.759 M251.705 168.555 C 251.706 170.703,251.772 171.532,251.851 170.397 C 251.930 169.262,251.929 167.504,251.849 166.491 C 251.769 165.478,251.704 166.406,251.705 168.555 M252.832 165.102 C 252.516 165.230,252.369 166.012,252.414 167.318 L 252.485 169.336 252.631 167.471 C 252.713 166.434,252.942 165.707,253.147 165.834 C 253.350 165.959,253.516 165.788,253.516 165.453 C 253.516 165.118,253.472 164.858,253.418 164.875 C 253.364 164.892,253.101 164.994,252.832 165.102 M265.768 168.945 C 265.769 171.094,265.834 171.923,265.913 170.788 C 265.993 169.653,265.992 167.895,265.912 166.881 C 265.831 165.868,265.767 166.797,265.768 168.945 M257.840 170.410 C 257.861 171.696,257.943 171.894,258.203 171.289 C 258.671 170.200,258.671 168.750,258.203 168.750 C 257.988 168.750,257.825 169.497,257.840 170.410 M173.223 183.203 C 173.223 190.830,173.275 193.950,173.339 190.137 C 173.403 186.323,173.403 180.083,173.339 176.270 C 173.275 172.456,173.223 175.576,173.223 183.203 M252.832 172.144 C 253.208 172.243,253.516 172.474,253.516 172.659 C 253.516 172.843,253.870 173.107,254.303 173.244 C 254.735 173.381,254.972 173.684,254.828 173.917 C 254.672 174.169,254.749 174.227,255.018 174.061 C 255.266 173.907,255.469 173.543,255.469 173.252 C 255.469 172.960,255.688 172.643,255.957 172.547 C 256.226 172.451,256.305 172.223,256.135 172.041 C 255.964 171.859,255.488 171.919,255.078 172.175 C 254.607 172.469,254.246 172.499,254.097 172.258 C 253.967 172.047,253.475 171.895,253.004 171.920 C 252.343 171.955,252.304 172.006,252.832 172.144 M145.050 186.133 C 145.052 187.637,145.122 188.204,145.207 187.394 C 145.292 186.583,145.290 185.353,145.204 184.659 C 145.118 183.966,145.048 184.629,145.050 186.133 M79.189 187.988 C 79.102 188.687,79.031 188.115,79.031 186.719 C 79.031 185.322,79.102 184.751,79.189 185.449 C 79.275 186.147,79.275 187.290,79.189 187.988 M96.875 186.719 C 96.875 187.370,96.615 187.500,95.313 187.500 C 94.010 187.500,93.750 187.370,93.750 186.719 C 93.750 186.068,94.010 185.938,95.313 185.938 C 96.615 185.938,96.875 186.068,96.875 186.719 M103.125 186.719 C 103.125 187.370,102.865 187.500,101.563 187.500 C 100.260 187.500,100.000 187.370,100.000 186.719 C 100.000 186.068,100.260 185.938,101.563 185.938 C 102.865 185.938,103.125 186.068,103.125 186.719 M109.375 186.719 C 109.375 187.370,109.115 187.500,107.813 187.500 C 106.510 187.500,106.250 187.370,106.250 186.719 C 106.250 186.068,106.510 185.938,107.813 185.938 C 109.115 185.938,109.375 186.068,109.375 186.719 M156.824 188.691 C 156.453 189.292,156.961 189.680,157.462 189.178 C 157.743 188.898,157.750 188.679,157.483 188.514 C 157.264 188.379,156.968 188.459,156.824 188.691 M237.275 198.242 C 237.275 202.754,237.332 204.546,237.401 202.225 C 237.470 199.904,237.470 196.212,237.401 194.022 C 237.331 191.831,237.274 193.730,237.275 198.242 M246.629 200.781 C 246.629 203.037,246.693 203.960,246.772 202.832 C 246.851 201.704,246.851 199.858,246.772 198.730 C 246.693 197.603,246.629 198.525,246.629 200.781 M215.885 200.815 C 216.273 201.285,215.750 201.359,212.369 201.315 C 206.698 201.241,205.859 201.414,205.859 202.662 C 205.859 203.786,205.252 203.424,204.999 202.148 C 204.914 201.719,204.718 203.878,204.564 206.948 C 204.294 212.326,204.562 214.427,205.447 213.880 C 205.629 213.768,205.886 213.959,206.018 214.304 C 206.219 214.827,206.362 214.847,206.870 214.425 C 207.301 214.067,207.559 214.044,207.746 214.346 C 207.926 214.637,208.572 214.666,209.767 214.435 C 212.264 213.954,212.385 213.972,212.620 214.869 C 212.827 215.660,212.857 215.662,214.130 214.980 C 215.116 214.452,216.592 214.247,220.250 214.132 C 224.750 213.990,225.057 213.931,224.876 213.240 C 224.770 212.833,224.842 212.500,225.037 212.500 C 225.231 212.500,225.391 212.711,225.391 212.969 C 225.391 213.328,225.498 213.330,225.849 212.979 C 226.424 212.405,224.421 210.381,223.703 210.811 C 223.416 210.983,223.435 210.849,223.756 210.454 C 224.192 209.915,224.149 209.756,223.463 209.388 C 223.019 209.151,222.656 208.786,222.656 208.577 C 222.656 208.000,217.937 202.525,217.537 202.637 C 217.345 202.690,217.208 202.603,217.234 202.441 C 217.362 201.628,217.107 201.157,216.309 200.731 C 215.564 200.334,215.499 200.347,215.885 200.815 M194.603 201.563 C 194.529 202.522,194.470 202.539,191.195 202.539 C 188.810 202.539,187.769 202.690,187.535 203.069 C 187.306 203.438,186.831 203.516,185.966 203.327 C 184.929 203.099,184.566 203.226,183.754 204.102 C 183.165 204.738,182.546 205.059,182.180 204.919 C 181.848 204.792,181.317 204.688,181.000 204.688 C 180.682 204.688,180.531 204.512,180.664 204.297 C 180.797 204.082,180.826 203.906,180.729 203.906 C 180.416 203.906,175.000 210.488,175.000 210.869 C 175.000 211.072,174.584 211.511,174.076 211.844 C 173.145 212.454,172.425 214.063,173.083 214.063 C 173.278 214.063,173.438 214.502,173.438 215.039 C 173.438 216.009,174.761 216.505,175.065 215.649 C 175.140 215.438,178.938 215.246,183.976 215.198 C 190.281 215.138,192.574 214.999,192.108 214.705 C 191.498 214.320,193.211 213.327,194.727 213.189 C 194.967 213.166,195.078 211.566,195.014 209.018 C 194.880 203.635,194.698 200.334,194.603 201.563 M120.449 212.500 C 120.449 214.326,120.516 215.073,120.599 214.160 C 120.681 213.247,120.681 211.753,120.599 210.840 C 120.516 209.927,120.449 210.674,120.449 212.500 M270.084 219.531 C 270.084 223.506,270.142 225.132,270.213 223.145 C 270.284 221.157,270.284 217.905,270.213 215.918 C 270.142 213.931,270.084 215.557,270.084 219.531 M171.064 214.941 C 170.799 215.806,170.894 216.276,171.333 216.276 C 171.631 216.276,171.875 216.130,171.875 215.951 C 171.875 215.771,171.689 215.625,171.461 215.625 C 171.234 215.625,171.156 215.449,171.289 215.234 C 171.422 215.020,171.432 214.844,171.312 214.844 C 171.192 214.844,171.080 214.888,171.064 214.941 M130.514 221.950 C 130.489 222.957,130.608 223.868,130.778 223.973 C 130.948 224.078,131.025 223.517,130.951 222.727 C 130.722 220.311,130.562 220.026,130.514 221.950 M192.709 229.297 C 192.709 230.908,192.778 231.567,192.863 230.762 C 192.947 229.956,192.947 228.638,192.863 227.832 C 192.778 227.026,192.709 227.686,192.709 229.297 M120.491 252.148 C 120.491 260.957,120.542 264.616,120.605 260.280 C 120.668 255.944,120.668 248.737,120.605 244.264 C 120.542 239.792,120.491 243.340,120.491 252.148 M179.445 255.469 C 179.445 257.939,179.508 258.950,179.586 257.715 C 179.663 256.479,179.663 254.458,179.586 253.223 C 179.508 251.987,179.445 252.998,179.445 255.469 M229.467 264.844 C 229.467 270.322,229.522 272.563,229.589 269.824 C 229.656 267.085,229.656 262.603,229.589 259.863 C 229.522 257.124,229.467 259.365,229.467 264.844 M170.091 265.234 C 170.091 270.498,170.146 272.651,170.214 270.020 C 170.281 267.388,170.281 263.081,170.214 260.449 C 170.146 257.817,170.091 259.971,170.091 265.234 M129.403 262.500 C 129.403 263.467,129.479 263.862,129.573 263.379 C 129.666 262.896,129.666 262.104,129.573 261.621 C 129.479 261.138,129.403 261.533,129.403 262.500 " stroke="none" fill="#182c53" fill-rule="evenodd"></path><path id="path4" d="M119.727 65.108 C 108.450 66.124,96.433 72.308,89.114 80.859 L 86.941 83.398 89.467 80.984 C 98.609 72.245,107.250 67.801,117.773 66.427 C 124.333 65.570,281.460 66.051,285.156 66.940 C 297.428 69.888,307.140 76.525,314.030 86.671 C 316.021 89.603,316.419 89.782,314.788 87.012 C 312.060 82.380,305.608 75.529,301.563 72.969 C 296.620 69.842,289.175 66.520,288.063 66.947 C 287.781 67.055,287.495 66.993,287.428 66.808 C 287.360 66.623,285.986 66.156,284.375 65.770 C 281.674 65.122,126.489 64.498,119.727 65.108 M198.999 78.223 C 198.278 79.090,198.278 79.092,199.029 78.412 C 199.769 77.740,200.252 78.182,217.180 95.013 L 234.570 112.305 217.189 94.824 C 207.630 85.210,199.791 77.344,199.769 77.344 C 199.748 77.344,199.401 77.739,198.999 78.223 M162.109 114.648 C 161.161 115.615,160.472 116.406,160.580 116.406 C 160.687 116.406,161.551 115.615,162.500 114.648 C 163.449 113.682,164.137 112.891,164.030 112.891 C 163.922 112.891,163.058 113.682,162.109 114.648 M154.077 122.754 L 152.930 124.023 154.199 122.876 C 155.383 121.807,155.648 121.484,155.347 121.484 C 155.279 121.484,154.708 122.056,154.077 122.754 M243.128 168.359 C 243.128 171.904,243.187 173.354,243.259 171.582 C 243.332 169.810,243.332 166.909,243.259 165.137 C 243.187 163.364,243.128 164.814,243.128 168.359 M133.464 164.714 C 133.104 165.073,133.134 172.567,133.496 172.791 C 133.657 172.891,133.789 171.055,133.789 168.713 C 133.789 166.370,133.774 164.453,133.757 164.453 C 133.739 164.453,133.607 164.570,133.464 164.714 M216.071 165.089 C 216.021 165.834,215.838 165.900,214.303 165.727 C 212.062 165.474,201.796 166.368,201.628 166.830 C 201.554 167.031,197.774 167.188,192.963 167.188 L 184.429 167.188 184.260 166.309 L 184.091 165.430 184.038 166.309 C 184.008 166.792,183.821 167.188,183.621 167.188 C 183.421 167.188,183.181 166.792,183.088 166.309 C 182.995 165.825,182.898 171.055,182.871 177.930 C 182.833 188.077,182.915 190.252,183.307 189.485 C 183.848 188.426,184.155 188.359,190.234 187.963 C 194.206 187.704,194.342 187.664,194.531 186.719 C 194.639 186.182,194.821 188.730,194.936 192.383 C 195.100 197.576,195.164 196.077,195.229 185.504 L 195.313 171.984 197.574 170.778 L 199.836 169.573 202.061 171.017 L 204.286 172.461 204.378 185.547 C 204.428 192.744,204.523 196.066,204.589 192.928 L 204.708 187.223 208.311 186.999 C 210.293 186.876,212.837 186.907,213.965 187.067 C 215.333 187.263,216.040 187.221,216.088 186.942 C 216.128 186.712,216.271 188.018,216.406 189.844 C 216.544 191.711,216.666 187.779,216.685 180.859 C 216.713 170.980,216.330 161.166,216.071 165.089 M147.747 171.484 C 147.747 172.236,147.827 172.544,147.926 172.168 C 148.024 171.792,148.024 171.177,147.926 170.801 C 147.827 170.425,147.747 170.732,147.747 171.484 M135.849 197.702 C 135.933 208.987,135.846 212.343,135.459 212.839 C 135.015 213.407,135.036 213.418,135.645 212.940 C 136.273 212.448,136.328 211.271,136.328 198.367 C 136.328 187.245,136.430 184.388,136.816 184.614 C 137.085 184.771,136.970 184.518,136.561 184.052 C 136.151 183.585,135.800 183.203,135.779 183.203 C 135.759 183.203,135.790 189.728,135.849 197.702 M254.215 190.881 L 254.328 198.363 255.641 198.986 C 257.412 199.827,259.481 199.771,261.318 198.833 L 262.840 198.057 262.963 191.118 C 263.031 187.302,263.069 184.133,263.048 184.077 C 263.028 184.020,262.374 184.240,261.596 184.565 C 259.619 185.391,257.842 185.303,255.828 184.277 L 254.102 183.398 254.215 190.881 M143.359 184.394 C 141.843 185.203,139.417 185.373,138.256 184.752 C 137.735 184.473,137.500 184.473,137.500 184.752 C 137.500 184.974,137.632 185.157,137.793 185.159 C 138.302 185.163,139.429 187.469,139.039 187.710 C 138.837 187.835,138.672 189.596,138.672 191.625 C 138.672 193.823,138.514 195.313,138.281 195.313 C 138.066 195.313,137.891 195.664,137.891 196.094 C 137.891 196.523,137.697 196.875,137.461 196.875 C 137.156 196.875,137.112 195.466,137.310 192.037 C 137.491 188.896,137.446 186.944,137.183 186.473 C 136.889 185.948,136.776 187.480,136.772 192.040 C 136.766 198.310,136.770 198.333,137.719 198.841 C 138.902 199.474,139.532 198.965,138.499 198.210 C 137.753 197.665,137.754 197.656,138.532 197.656 C 138.967 197.656,139.455 197.524,139.616 197.363 C 139.777 197.202,140.377 197.061,140.950 197.051 C 142.146 197.028,143.527 198.405,142.925 199.020 C 142.675 199.275,142.430 199.220,142.207 198.859 C 141.920 198.396,141.772 198.407,141.246 198.932 C 140.349 199.830,140.468 199.955,141.895 199.613 C 144.550 198.976,144.386 199.468,144.669 191.326 C 144.967 182.739,145.104 183.463,143.359 184.394 M254.977 195.410 C 254.900 196.753,254.838 195.654,254.838 192.969 C 254.838 190.283,254.900 189.185,254.977 190.527 C 255.053 191.870,255.053 194.067,254.977 195.410 M162.266 195.898 C 162.266 199.121,162.327 200.387,162.400 198.713 C 162.473 197.038,162.473 194.401,162.399 192.853 C 162.325 191.305,162.265 192.676,162.266 195.898 M263.358 205.153 C 263.316 209.168,263.413 212.536,263.574 212.636 C 263.735 212.736,263.821 210.593,263.765 207.874 C 263.578 198.751,263.435 197.797,263.358 205.153 M203.170 206.464 C 203.113 206.987,201.091 207.713,198.828 208.023 C 195.756 208.444,195.313 208.835,195.313 211.121 C 195.313 212.223,195.093 213.375,194.824 213.681 C 194.532 214.014,194.650 213.986,195.117 213.611 C 197.711 211.532,199.893 211.255,202.650 212.654 L 204.492 213.588 204.352 209.822 C 204.267 207.547,204.094 206.364,203.916 206.836 L 203.621 207.617 203.418 206.836 C 203.307 206.406,203.195 206.239,203.170 206.464 M254.409 213.477 C 254.412 214.551,254.487 214.944,254.577 214.350 C 254.667 213.756,254.665 212.877,254.572 212.397 C 254.479 211.917,254.406 212.402,254.409 213.477 M268.286 219.532 C 268.219 221.896,268.296 223.829,268.457 223.829 C 268.618 223.828,268.750 221.895,268.750 219.531 C 268.750 213.976,268.444 213.976,268.286 219.532 M231.611 218.850 C 232.720 220.105,232.682 220.088,232.682 219.336 C 232.682 219.014,232.594 218.838,232.486 218.946 C 232.378 219.054,231.924 218.836,231.477 218.461 C 230.885 217.964,230.921 218.070,231.611 218.850 M242.553 219.696 C 242.778 219.967,242.841 220.310,242.694 220.457 C 242.265 220.886,242.217 221.903,242.638 221.642 C 242.849 221.512,242.921 221.306,242.799 221.184 C 242.676 221.062,242.868 220.640,243.224 220.247 C 243.580 219.853,243.800 219.518,243.713 219.501 C 243.626 219.485,243.237 219.411,242.849 219.337 C 242.320 219.237,242.246 219.326,242.553 219.696 M234.961 220.208 C 233.010 220.482,233.036 220.944,235.097 222.572 C 236.181 223.429,236.951 224.247,236.807 224.390 C 236.664 224.534,236.849 224.535,237.217 224.394 C 237.585 224.252,237.782 223.968,237.654 223.761 C 237.526 223.554,237.659 223.418,237.949 223.458 C 239.022 223.605,239.493 223.427,239.217 222.980 C 239.025 222.670,239.150 222.606,239.605 222.781 C 240.056 222.954,240.184 222.890,239.995 222.585 C 239.814 222.293,239.923 222.213,240.303 222.358 C 240.627 222.482,241.139 222.427,241.442 222.235 C 241.831 221.989,241.849 221.885,241.504 221.881 C 241.235 221.878,241.016 221.523,241.016 221.094 C 241.016 220.418,240.755 220.313,239.094 220.313 C 238.038 220.313,236.939 220.252,236.653 220.178 C 236.367 220.104,235.605 220.117,234.961 220.208 M215.189 227.832 C 215.164 231.108,215.063 233.481,214.965 233.105 C 214.867 232.729,214.492 232.425,214.132 232.428 C 213.562 232.433,213.553 232.488,214.063 232.846 C 214.511 233.162,214.345 233.221,213.358 233.100 C 212.419 232.985,211.969 233.127,211.704 233.622 C 211.455 234.086,210.686 234.368,209.283 234.510 C 208.152 234.625,206.216 234.870,204.981 235.056 C 203.495 235.279,202.585 235.254,202.287 234.981 C 201.978 234.698,201.909 234.698,202.065 234.980 C 202.644 236.023,201.569 236.515,198.540 236.594 C 196.858 236.638,194.993 236.859,194.395 237.087 C 193.798 237.314,192.968 237.500,192.553 237.500 C 192.137 237.500,191.797 237.676,191.797 237.891 C 191.797 238.438,190.098 238.379,189.531 237.812 C 189.167 237.448,189.061 237.513,189.057 238.105 C 189.053 238.525,188.922 238.692,188.764 238.477 C 188.606 238.262,188.125 238.034,187.695 237.971 C 187.266 237.908,187.678 238.303,188.613 238.849 C 189.547 239.395,190.497 239.728,190.724 239.587 C 190.985 239.426,191.019 239.523,190.817 239.850 C 190.582 240.229,190.676 240.298,191.167 240.110 C 191.536 239.968,191.751 239.992,191.646 240.162 C 191.541 240.332,193.295 241.386,195.544 242.505 L 199.632 244.538 206.713 240.921 C 213.782 237.311,215.592 235.906,215.044 234.452 C 214.939 234.173,215.026 234.051,215.239 234.182 C 215.487 234.336,215.625 232.182,215.625 228.148 C 215.625 224.698,215.537 221.875,215.430 221.875 C 215.322 221.875,215.214 224.556,215.189 227.832 M183.748 227.930 C 183.748 230.938,183.810 232.116,183.884 230.549 C 183.958 228.982,183.958 226.521,183.883 225.081 C 183.808 223.640,183.747 224.922,183.748 227.930 M206.445 228.516 C 206.445 230.838,206.577 232.656,206.738 232.557 C 206.899 232.457,207.031 230.639,207.031 228.516 C 207.031 226.393,206.899 224.574,206.738 224.474 C 206.577 224.375,206.445 226.193,206.445 228.516 M143.933 247.266 C 143.933 259.834,143.982 264.976,144.043 258.691 C 144.103 252.407,144.103 242.124,144.043 235.840 C 143.982 229.556,143.933 234.697,143.933 247.266 M224.512 249.051 L 220.313 251.165 220.313 255.465 C 220.313 257.830,220.424 259.766,220.561 259.766 C 220.698 259.766,222.719 258.755,225.053 257.520 L 229.296 255.273 229.297 251.074 C 229.297 248.765,229.165 246.889,229.004 246.906 C 228.843 246.924,226.821 247.889,224.512 249.051 M170.397 251.389 L 170.508 255.512 174.902 257.797 L 179.297 260.081 179.297 255.715 L 179.297 251.350 175.191 249.308 C 169.914 246.684,170.266 246.531,170.397 251.389 M211.049 255.273 C 211.052 256.348,211.128 256.741,211.218 256.147 C 211.308 255.553,211.305 254.674,211.212 254.194 C 211.120 253.713,211.046 254.199,211.049 255.273 M220.039 262.109 C 220.039 263.291,220.112 263.774,220.202 263.184 C 220.291 262.593,220.291 261.626,220.202 261.035 C 220.112 260.444,220.039 260.928,220.039 262.109 M179.363 266.090 C 179.326 268.387,179.429 270.348,179.590 270.449 C 179.751 270.549,179.835 269.285,179.777 267.640 C 179.591 262.392,179.430 261.790,179.363 266.090 M141.163 275.781 C 141.163 278.252,141.227 279.263,141.304 278.027 C 141.382 276.792,141.382 274.771,141.304 273.535 C 141.227 272.300,141.163 273.311,141.163 275.781 M258.351 275.781 C 258.351 278.252,258.414 279.263,258.492 278.027 C 258.569 276.792,258.569 274.771,258.492 273.535 C 258.414 272.300,258.351 273.311,258.351 275.781 M143.899 277.148 C 143.900 279.727,143.963 280.730,144.040 279.379 C 144.116 278.028,144.115 275.919,144.038 274.692 C 143.961 273.465,143.898 274.570,143.899 277.148 M230.370 286.963 C 229.780 287.272,229.297 287.612,229.297 287.718 C 229.297 287.824,229.810 287.645,230.438 287.321 C 231.315 286.867,231.625 286.842,231.774 287.213 C 231.918 287.567,231.978 287.571,232.000 287.230 C 232.051 286.460,231.502 286.370,230.370 286.963 M228.779 288.528 C 229.006 289.135,228.955 289.179,228.475 288.789 C 228.004 288.408,227.887 288.462,227.840 289.082 C 227.805 289.557,228.031 289.846,228.442 289.850 C 229.011 289.855,229.021 289.908,228.516 290.234 C 227.450 290.923,226.200 290.710,226.363 289.866 C 226.464 289.343,226.339 289.173,225.962 289.317 C 225.661 289.433,225.454 289.708,225.501 289.930 C 225.548 290.151,225.342 290.421,225.043 290.529 C 224.680 290.661,224.593 290.548,224.779 290.187 C 224.933 289.891,224.781 289.990,224.443 290.407 C 224.105 290.824,223.828 291.010,223.828 290.820 C 223.828 290.631,223.591 290.800,223.301 291.196 C 223.012 291.592,222.591 291.802,222.366 291.663 C 222.141 291.524,221.852 291.685,221.723 292.019 C 221.595 292.354,221.313 292.518,221.097 292.385 C 220.667 292.119,218.359 293.341,218.359 293.834 C 218.359 294.003,218.228 294.099,218.066 294.048 C 217.505 293.870,215.246 295.015,215.464 295.368 C 215.584 295.563,215.529 295.674,215.341 295.615 C 214.713 295.418,210.962 297.380,211.207 297.777 C 211.340 297.992,211.260 298.051,211.030 297.909 C 210.800 297.767,208.336 298.882,205.556 300.388 C 199.536 303.647,200.356 303.581,195.687 301.183 C 193.607 300.114,191.793 299.353,191.656 299.490 C 191.519 299.627,191.406 299.524,191.406 299.261 C 191.406 298.997,191.249 298.879,191.057 298.998 C 190.864 299.117,190.607 298.955,190.485 298.637 C 190.348 298.280,190.010 298.157,189.599 298.315 C 189.125 298.497,189.022 298.428,189.241 298.074 C 189.483 297.683,189.373 297.672,188.719 298.022 C 188.173 298.314,187.891 298.327,187.891 298.061 C 187.891 297.838,187.451 297.656,186.914 297.656 C 186.306 297.656,185.938 297.878,185.938 298.242 C 185.938 298.564,185.636 298.828,185.267 298.828 C 184.286 298.828,181.250 300.049,181.250 300.444 C 181.250 300.629,180.907 300.781,180.488 300.781 C 180.069 300.781,179.570 301.061,179.379 301.402 C 179.063 301.966,178.972 301.963,178.383 301.374 C 178.026 301.017,177.734 300.910,177.734 301.136 C 177.734 301.362,178.481 301.910,179.395 302.353 C 180.383 302.834,180.748 302.916,180.296 302.557 C 179.879 302.225,179.738 301.953,179.981 301.953 C 180.225 301.953,180.667 302.299,180.963 302.722 C 181.651 303.704,198.338 312.496,199.518 312.498 C 200.468 312.500,205.159 310.227,214.844 305.071 C 218.174 303.298,223.356 300.541,226.360 298.944 C 229.365 297.347,231.933 295.862,232.068 295.643 C 232.203 295.425,232.470 295.259,232.661 295.274 C 233.412 295.337,234.374 294.846,234.165 294.508 C 234.043 294.311,234.203 294.249,234.520 294.371 C 234.837 294.492,235.461 294.227,235.907 293.780 C 236.354 293.334,236.719 293.090,236.719 293.239 C 236.719 293.387,236.956 293.185,237.245 292.788 C 237.535 292.392,237.939 292.171,238.143 292.297 C 238.347 292.423,238.749 292.381,239.036 292.204 C 239.434 291.958,239.337 291.764,238.627 291.390 C 238.115 291.120,237.595 290.745,237.472 290.558 C 237.346 290.366,236.035 290.390,234.465 290.612 C 231.600 291.019,230.474 290.873,230.462 290.095 C 230.458 289.849,230.016 289.232,229.480 288.723 C 228.676 287.961,228.553 287.927,228.779 288.528 M240.058 291.302 C 239.901 291.712,240.037 291.724,240.731 291.362 C 241.956 290.726,241.991 290.659,241.070 290.728 C 240.622 290.762,240.166 291.020,240.058 291.302 " stroke="none" fill="#788fac" fill-rule="evenodd"></path></g></svg>